<svg xmlns="http://www.w3.org/2000/svg" viewBox="0 0 496 512" fill="#00e5ff">
  <!-- Font Awesome Creative Commons Sampling Plus icon path -->
  <path d="M247.8 7.3C113.3 7.3 4.3 116.3 4.3 250.8s109 243.5 243.5 243.5 243.5-109 243.5-243.5S382.3 7.3 247.8 7.3zm0 452.7C131.7 460 38.1 366.4 38.1 250.3c0-116.1 93.6-209.7 209.7-209.7S457.5 134.2 457.5 250.3C457.5 366.4 363.9 460 247.8 460zm-65.3-192.8h-29.2v-29.2h29.2v29.2zm0-64.8h-29.2v-29.2h29.2v29.2zm64.8 64.8H218v-29.2h29.3v29.2zm0-64.8H218v-29.2h29.3v29.2zm29.5 64.8v-29.2h29.2v29.2h-29.2zm0-64.8v-29.2h29.2v29.2h-29.2zm64.7 64.8h-29.2v-29.2h29.2v29.2zm0-64.8h-29.2v-29.2h29.2v29.2z"/>
</svg>